<?xml version="1.0" encoding="utf-8"?>
<!-- Generator: Adobe Illustrator 23.0.1, SVG Export Plug-In . SVG Version: 6.00 Build 0)  -->
<svg version="1.1" id="图层_1" xmlns="http://www.w3.org/2000/svg" xmlns:xlink="http://www.w3.org/1999/xlink" x="0px" y="0px"
	 viewBox="0 0 48 48" style="enable-background:new 0 0 48 48;" xml:space="preserve">
<style type="text/css">
	.st0{fill-rule:evenodd;clip-rule:evenodd;}
</style>
<title>Public/ic_public_delete</title>
<g>
	<g transform="translate(8.000000, 8.000000)">
		<g >
			<path class="st0" d="M31.6,0.4c0.6,0.6,0.6,1.5,0,2.1l-29,29c-0.6,0.6-1.5,0.6-2.1,0s-0.6-1.5,0-2.1L13.9,16L0.4,2.6
				C-0.1,2-0.1,1,0.4,0.4s1.5-0.6,2.1,0L16,13.9L29.4,0.4C30-0.1,31-0.1,31.6,0.4z M31.6,29.4c0.6,0.6,0.6,1.5,0,2.1s-1.5,0.6-2.1,0
				l-12-12l2.1-2.1L31.6,29.4z"/>
		</g>
	</g>
</g>
</svg>
